{
    "accessors": [
        {
            "bufferView": 1,
            "byteOffset": 0,
            "componentType": 5123,
            "count": 2904,
            "max": [
                1965
            ],
            "min": [
                0
            ],
            "name": "accessor_buffer_Suzanne_2",
            "type": "SCALAR"
        },
        {
            "bufferView": 0,
            "byteOffset": 0,
            "componentType": 5126,
            "count": 1966,
            "max": [
                1.3671875,
                0.8515625,
                0.984375
            ],
            "min": [
                -1.3671875,
                -0.8515625,
                -0.984375
            ],
            "name": "accessor_buffer_Suzanne_0",
            "type": "VEC3"
        },
        {
            "bufferView": 0,
            "byteOffset": 12,
            "componentType": 5126,
            "count": 1966,
            "max": [
                1.0,
                0.9864740371704102,
                0.9970182180404663
            ],
            "min": [
                -1.0,
                -1.0,
                -0.992402970790863
            ],
            "name": "accessor_buffer_Suzanne_1",
            "type": "VEC3"
        }
    ],
    "asset": {
        "version": "2.0"
    },
    "bufferViews": [
        {
            "buffer": 0,
            "byteLength": 47184,
            "byteOffset": 0,
            "byteStride": 24,
            "name": "bufferView_buffer_Suzanne_0",
            "target": 34962
        },
        {
            "buffer": 0,
            "byteLength": 5808,
            "byteOffset": 47184,
            "name": "bufferView_buffer_Suzanne_1",
            "target": 34963
        }
    ],
    "buffers": [
        {
            "byteLength": 52992,
            "name": "buffer_combined",
            "uri": "buffer_combined.bin"
        }
    ],
    "cameras": [
        {
            "name": "Camera",
            "perspective": {
                "aspectRatio": 1.703595982340029,
                "yfov": 0.5033799409866333,
                "zfar": 100.0,
                "znear": 0.10000000149011612
            },
            "type": "perspective"
        }
    ],
    "meshes": [
        {
            "name": "Suzanne",
            "primitives": [
                {
                    "attributes": {
                        "NORMAL": 2,
                        "POSITION": 1
                    },
                    "indices": 0,
                    "mode": 4
                }
            ]
        }
    ],
    "nodes": [
        {
            "camera": 0,
            "name": "Camera",
            "rotation": [
                0.48170700669288635,
                0.21292175352573395,
                0.3342514932155609,
                0.7816000580787659
            ],
            "scale": [
                1.0,
                0.9999999403953552,
                1.0
            ],
            "translation": [
                7.481131553649902,
                -6.5076398849487305,
                5.34366512298584
            ]
        },
        {
            "name": "Lamp",
            "rotation": [
                0.16907575726509094,
                0.27217137813568115,
                0.7558802962303162,
                0.570947527885437
            ],
            "scale": [
                1.0,
                0.9999999403953552,
                1.0
            ],
            "translation": [
                4.076245307922363,
                1.0054539442062378,
                5.903861999511719
            ]
        },
        {
            "mesh": 0,
            "name": "Suzanne",
            "rotation": [
                0.0,
                0.0,
                0.0,
                1.0
            ],
            "scale": [
                0.2644352912902832,
                0.2644352912902832,
                0.2644352912902832
            ],
            "translation": [
                0.0,
                0.0,
                0.2736205458641052
            ]
        },
        {
            "children": [
                2,
                1,
                0
            ],
            "matrix": [
                1.0,
                0.0,
                0.0,
                0.0,
                0.0,
                0.0,
                -1.0,
                0.0,
                0.0,
                1.0,
                0.0,
                0.0,
                0.0,
                0.0,
                0.0,
                1.0
            ],
            "name": "Scene_root"
        }
    ],
    "samplers": [
        {
            "name": "default"
        }
    ],
    "scene": 0,
    "scenes": [
        {
            "extras": {
                "active_camera": 0,
                "background_color": [
                    0.05087608844041824,
                    0.05087608844041824,
                    0.05087608844041824
                ],
                "frames_per_second": 24
            },
            "name": "Scene",
            "nodes": [
                3
            ]
        }
    ]
}
